<svg width="1200" height="900" viewBox="0 0 1200 900" fill="none" xmlns="http://www.w3.org/2000/svg">
  <!-- Background - Dark Theme -->
  <rect width="1200" height="900" fill="#0d1117"/>
  
  <!-- Border -->
  <rect x="40" y="40" width="1120" height="820" rx="8" fill="none" stroke="#30363d" stroke-width="8"/>
  <rect x="60" y="60" width="1080" height="780" rx="4" fill="none" stroke="#30363d" stroke-width="2"/>
  
  <!-- Title -->
  <text x="600" y="150" font-family="serif" font-size="56" font-weight="bold" fill="#c9d1d9" text-anchor="middle">CERTIFICATE OF COMPLETION</text>
  
  <!-- Decoration -->
  <circle cx="600" cy="250" r="80" fill="#3fb950" opacity="0.2"/>
  <path d="M600 190 L620 230 L660 235 L630 265 L640 305 L600 285 L560 305 L570 265 L540 235 L580 230 Z" fill="#3fb950"/>
  
  <!-- Body Text -->
  <text x="600" y="380" font-family="sans-serif" font-size="28" fill="#8b949e" text-anchor="middle">This is to certify that</text>
  <text x="600" y="450" font-family="serif" font-size="48" font-weight="bold" fill="#c9d1d9" text-anchor="middle">Certificate Holder Name</text>
  <text x="600" y="520" font-family="sans-serif" font-size="24" fill="#8b949e" text-anchor="middle">has successfully completed</text>
  <text x="600" y="580" font-family="serif" font-size="36" font-weight="600" fill="#58a6ff" text-anchor="middle">Certification Program Name</text>
  
  <!-- Date and Signature -->
  <line x1="250" y1="720" x2="450" y2="720" stroke="#30363d" stroke-width="2"/>
  <text x="350" y="750" font-family="sans-serif" font-size="18" fill="#8b949e" text-anchor="middle">Date</text>
  
  <line x1="750" y1="720" x2="950" y2="720" stroke="#30363d" stroke-width="2"/>
  <text x="850" y="750" font-family="sans-serif" font-size="18" fill="#8b949e" text-anchor="middle">Authorized Signature</text>
  
  <!-- Credential ID -->
  <text x="600" y="820" font-family="monospace" font-size="16" fill="#6e7681" text-anchor="middle">CREDENTIAL ID: XXXX-XXXX-XXXX</text>
</svg>
